<svg xmlns="http://www.w3.org/2000/svg" width="500" height="500" viewBox="0 0 500 500"><path d="M 243.500 93.971 C 236.570 94.964, 223.528 99.578, 217 103.346 C 194.374 116.407, 189.680 133.806, 204.873 148.297 C 211.732 154.840, 219.723 159.068, 231.107 162.176 C 242.509 165.290, 268.161 165.518, 277.500 162.590 C 285.045 160.224, 294.433 160.096, 298.650 162.301 C 303.840 165.015, 308.619 171.618, 313.131 182.311 C 316.359 189.960, 318.590 193.643, 322.306 197.459 L 327.217 202.500 326.586 213 C 326.239 218.775, 325.297 232.050, 324.492 242.500 C 322.441 269.142, 322.435 269, 325.550 269 C 333.174 269, 339.544 261.178, 344.594 245.614 C 347.227 237.501, 348.233 232.586, 348.321 227.411 C 348.463 218.993, 346.818 215.755, 341.506 214.002 C 338.235 212.922, 337.984 212.566, 338.448 209.663 C 347.099 155.626, 346.299 147.001, 332.349 143.879 C 325.535 142.354, 318.219 143.841, 311.468 148.123 L 306.679 151.159 302.840 149.428 C 300.728 148.475, 299 147.294, 299 146.803 C 299 144.955, 304.233 140.783, 309.674 138.292 C 317.025 134.926, 326.984 134.125, 333.572 136.370 C 336.194 137.263, 338.550 137.783, 338.808 137.525 C 339.067 137.267, 337.753 134.524, 335.889 131.430 C 331.411 123.998, 320.684 113.973, 313.373 110.388 C 308.195 107.849, 306.198 107.468, 296.500 107.165 C 286.371 106.850, 284.708 107.075, 275.500 110.015 C 259.662 115.071, 252.739 119.117, 242.871 129.083 C 233.850 138.193, 229.827 144.829, 228.523 152.750 C 227.892 156.588, 227.549 157, 224.984 157 C 219.132 157, 217.718 152.406, 220.431 142.214 C 224.607 126.526, 242.495 111.140, 265.500 103.449 C 271.799 101.343, 276.133 100.660, 285.885 100.236 C 296.511 99.774, 297.931 99.523, 295.885 98.469 C 288.151 94.484, 257.989 91.894, 243.500 93.971 M 233 104.935 C 217.923 109.538, 202.699 128.697, 205.441 139.619 C 206.010 141.887, 206.319 142.090, 207.398 140.906 C 208.103 140.133, 209.468 137.352, 210.431 134.728 C 212.868 128.088, 219.939 119.032, 227.147 113.320 C 239.433 103.585, 239.978 102.805, 233 104.935 M 286.782 115.938 C 277.467 119.580, 268.755 127.555, 265.449 135.468 C 263.571 139.962, 263.594 148.314, 265.494 151.989 C 267.332 155.542, 270.696 158, 273.723 158 C 276.395 158, 276.525 157.235, 274.506 153.364 C 272.624 149.755, 272.633 148.600, 274.594 141.995 C 275.846 137.780, 277.511 135.320, 282.344 130.545 C 289.710 123.268, 297.269 120.175, 309.510 119.429 C 313.840 119.166, 317.589 118.744, 317.841 118.493 C 318.092 118.241, 316.318 117.137, 313.899 116.040 C 307.941 113.337, 293.574 113.283, 286.782 115.938 M 181.435 134.250 C 175.155 138.510, 171.456 143.272, 169 150.258 C 166.338 157.834, 166.459 162.124, 170.046 187.159 C 171.721 198.853, 172.959 209.538, 172.796 210.903 C 172.577 212.737, 171.683 213.595, 169.366 214.191 C 164.477 215.449, 162.581 219.261, 162.747 227.500 C 162.961 238.114, 169.429 256.121, 175.780 263.782 C 178.565 267.142, 185.303 270.205, 187.800 269.247 C 188.849 268.844, 189.054 267.447, 188.628 263.606 C 188.316 260.798, 187.085 245.531, 185.891 229.680 L 183.720 200.860 187.985 196.515 L 192.250 192.169 191.544 177.835 C 190.775 162.241, 191.278 159.439, 195.675 154.829 L 198.223 152.158 195.662 148.801 C 192.208 144.273, 189.049 137.111, 189.022 133.750 C 188.993 130.135, 187.340 130.244, 181.435 134.250 M 322.189 164.714 C 319.099 165.304, 318.535 167.201, 320.386 170.780 C 321.873 173.654, 322.046 173.712, 326.278 172.744 C 329.964 171.900, 331.381 172.075, 335.446 173.873 C 341.326 176.474, 341 176.483, 341 173.723 C 341 166.871, 332.417 162.760, 322.189 164.714 M 203.852 199.391 C 199.798 200.839, 195.357 204.046, 193.262 207.037 C 191.610 209.395, 192.218 209.439, 199.661 207.500 C 206.175 205.803, 222 205.449, 222 207 C 222 207.550, 221.297 208, 220.438 208 C 217.189 208, 208.038 213.216, 204.589 217.034 C 200.327 221.750, 200.190 222.674, 203.525 224.193 C 205.764 225.213, 206.416 224.998, 209.275 222.291 C 215.565 216.335, 225.091 215.651, 231.771 220.674 L 235.043 223.134 234.771 242.317 L 234.500 261.500 226.674 266.750 C 218.196 272.438, 213.492 273.434, 209.223 270.443 C 204.765 267.321, 207.682 260.199, 212.908 261.445 C 217.730 262.594, 218.423 262.504, 218.799 260.676 C 219.006 259.672, 218.391 257.985, 217.433 256.926 C 213.886 253.007, 204.515 255.492, 201.353 261.190 C 199.389 264.728, 199.692 272.982, 201.919 276.634 C 207.879 286.410, 224.548 291.359, 238.764 287.575 C 244.333 286.092, 251.797 282.155, 253.946 279.565 C 255.087 278.190, 255.642 278.337, 258.866 280.871 C 264.174 285.041, 267.763 286.656, 274.804 288.041 C 291.324 291.291, 307.761 284.027, 310.986 272.051 C 312.701 265.684, 310.742 260.447, 305.305 256.863 C 299.692 253.161, 291.164 255.643, 292.201 260.676 C 292.582 262.526, 293.209 262.597, 298.406 261.385 C 301.706 260.615, 304 262.762, 304 266.620 C 304 270.113, 301.366 272, 296.492 272 C 292.928 272, 290.875 271.139, 285.313 267.313 C 273.938 259.488, 267.613 258.250, 259.907 262.339 L 255.500 264.678 251.750 262.206 L 248 259.734 248 237.045 C 248 210.827, 247.298 207.309, 240.919 201.545 L 236.994 198 222.247 198.044 C 212.769 198.072, 206.197 198.553, 203.852 199.391 M 270.638 201.013 C 266.712 204.460, 264.392 209.566, 263.419 216.901 L 262.742 222 269.149 222 C 273.367 222, 276.325 221.461, 277.809 220.421 C 284.453 215.768, 294.148 216.332, 300.112 221.720 C 303.146 224.461, 304.530 225.084, 306.493 224.591 C 307.872 224.245, 309 223.260, 309 222.402 C 309 218.172, 294.344 208.036, 288.191 208.010 C 286.908 208.004, 286.157 207.556, 286.500 207 C 287.442 205.476, 304.779 205.830, 311 207.500 C 314.025 208.312, 317.147 208.982, 317.937 208.988 C 320.498 209.009, 314.177 203.411, 308.503 200.633 C 303.446 198.157, 302.262 198, 288.598 198 L 274.070 198 270.638 201.013 M 228.911 292.834 C 230.974 296.688, 237.475 301.904, 242.718 303.910 C 256.368 309.134, 276.323 304.012, 281.527 293.948 L 283.051 291 279.648 291 C 277.773 291, 275.659 291.706, 274.939 292.573 C 272.260 295.802, 265.545 298.313, 258.330 298.784 C 248.748 299.410, 245.077 298.587, 239.088 294.467 C 233.384 290.543, 227.150 289.543, 228.911 292.834 M 199.852 304.518 C 199.771 305.608, 199.812 309.243, 199.945 312.595 L 200.185 318.690 191.218 330.595 C 181.975 342.865, 169.051 356.120, 160.793 361.799 C 155.137 365.690, 142.212 372, 139.901 372 C 138.990 372, 137.729 372.621, 137.099 373.381 C 136.185 374.482, 137.120 375.762, 141.727 379.711 C 151.668 388.235, 165.268 397.335, 174.560 401.684 C 183.969 406.087, 196.337 411, 198.011 411 C 198.646 411, 199 396.943, 199 371.667 C 199 350.033, 199.301 332.033, 199.668 331.665 C 200.036 331.298, 203.349 333.810, 207.031 337.248 C 210.714 340.687, 215.742 345.158, 218.206 347.183 C 225.512 353.190, 242.402 362.916, 250.038 365.513 L 257.149 367.932 268.325 357.136 C 282.801 343.150, 287.340 339.011, 288.202 339.005 C 288.589 339.002, 289.039 341.754, 289.202 345.121 L 289.500 351.242 299.356 341.871 C 304.776 336.717, 309.839 332.140, 310.606 331.700 C 311.788 331.022, 312 336.982, 312 370.950 C 312 396.700, 312.353 411, 312.989 411 C 314.161 411, 324.813 407.005, 334.122 403.075 C 345.749 398.165, 372.761 378.666, 373.805 374.429 C 373.973 373.746, 372.403 372.645, 370.305 371.972 C 368.212 371.301, 362.465 368.687, 357.532 366.163 C 350.338 362.480, 346.482 359.558, 338.032 351.383 C 332.240 345.779, 326.150 339.326, 324.500 337.043 C 322.850 334.760, 319.381 330.086, 316.792 326.656 C 312.085 320.421, 312.084 320.417, 311.792 311.459 L 311.500 302.500 304 309.610 C 299.875 313.520, 293.763 318.920, 290.417 321.610 C 287.072 324.299, 282.347 328.129, 279.917 330.120 C 273.294 335.548, 269.783 336.318, 254.110 335.780 C 244.361 335.446, 239.365 334.828, 236.500 333.605 C 230.724 331.138, 221.963 324.134, 210.250 312.615 C 202.378 304.875, 199.966 302.996, 199.852 304.518 M 216 365.268 C 212.565 367.039, 209.070 375.965, 209.031 383.068 C 208.991 390.220, 211.332 398.053, 214.707 402.064 C 217.172 404.993, 217.695 405.178, 221.932 404.609 C 224.445 404.272, 229.356 402.597, 232.847 400.888 C 238.984 397.882, 239.174 397.675, 238.589 394.639 C 236.870 385.721, 236.826 382.958, 238.332 378.539 C 239.198 375.998, 239.672 373.309, 239.386 372.564 C 238.661 370.675, 227.331 365.324, 222.500 364.588 C 220.035 364.213, 217.541 364.474, 216 365.268 M 286 364.905 C 281.618 365.837, 275.199 369.120, 271.229 372.460 C 268.977 374.355, 268.333 375.597, 268.738 377.258 C 269.270 379.438, 269.206 379.428, 266.393 376.872 C 260.679 371.682, 255.525 370.643, 249.906 373.549 C 240.851 378.231, 240.944 392.283, 250.062 397.173 C 254.779 399.703, 257.866 399.465, 263.049 396.172 L 267.500 393.345 272.686 397.244 C 278.280 401.450, 286.468 405, 290.576 405 C 297.487 405, 301.179 398.573, 301.795 385.472 C 302.160 377.705, 301.912 375.792, 300.023 371.773 C 298.816 369.204, 297.261 366.632, 296.568 366.057 C 294.759 364.555, 290.055 364.042, 286 364.905" stroke="none" fill="black" fill-rule="evenodd"></path></svg>